<?xml version="1.0" encoding="UTF-8" standalone="no"?>
<svg
   xmlns:dc="http://purl.org/dc/elements/1.1/"
   xmlns:cc="http://creativecommons.org/ns#"
   xmlns:rdf="http://www.w3.org/1999/02/22-rdf-syntax-ns#"
   xmlns:svg="http://www.w3.org/2000/svg"
   xmlns="http://www.w3.org/2000/svg"
   xmlns:sodipodi="http://sodipodi.sourceforge.net/DTD/sodipodi-0.dtd"
   xmlns:inkscape="http://www.inkscape.org/namespaces/inkscape"
   width="512"
   height="512"
   viewBox="0 0 135.46666 135.46667"
   version="1.1"
   id="svg8"
   inkscape:version="1.0.1 (3bc2e813f5, 2020-09-07)"
   sodipodi:docname="Catchers Mitt Logo.svg">
  <defs
     id="defs2" />
  <sodipodi:namedview
     id="base"
     pagecolor="#ffffff"
     bordercolor="#666666"
     borderopacity="1.0"
     inkscape:pageopacity="0.0"
     inkscape:pageshadow="2"
     inkscape:zoom="1.979899"
     inkscape:cx="259.24842"
     inkscape:cy="296.12712"
     inkscape:document-units="mm"
     inkscape:current-layer="layer5"
     inkscape:document-rotation="0"
     showgrid="false"
     units="px"
     inkscape:window-width="1267"
     inkscape:window-height="728"
     inkscape:window-x="78"
     inkscape:window-y="0"
     inkscape:window-maximized="0" />
  <metadata
     id="metadata5">
    <rdf:RDF>
      <cc:Work
         rdf:about="">
        <dc:format>image/svg+xml</dc:format>
        <dc:type
           rdf:resource="http://purl.org/dc/dcmitype/StillImage" />
        <dc:title></dc:title>
      </cc:Work>
    </rdf:RDF>
  </metadata>
  <g
     inkscape:label="Layer 1"
     inkscape:groupmode="layer"
     id="layer1"
     style="display:inline">
    <path
       style="fill:#c17d11;stroke:#000000;stroke-width:0.264583px;stroke-linecap:butt;stroke-linejoin:miter;stroke-opacity:1"
       d="M 119.0625,32.127975 C 148.4639,173.73415 -5.7002252,139.93515 14.741071,41.57738 c 0,0 32.120876,-24.7787 48.002975,-24.190475 30.616072,1.133927 56.318454,14.74107 56.318454,14.74107 z"
       id="path12"
       sodipodi:nodetypes="ccsc" />
  </g>
  <g
     inkscape:groupmode="layer"
     id="layer2"
     inkscape:label="Layer 2"
     style="display:inline">
    <path
       style="fill:none;stroke:#000000;stroke-width:0.264583px;stroke-linecap:butt;stroke-linejoin:miter;stroke-opacity:1"
       d="m 26.836309,50.270833 c 5.1274,22.847622 14.40152,41.030185 27.592263,54.806547 l 44.223212,-3.77976 C 100.11937,82.538351 107.36307,71.865641 99.785714,40.443451 95.989954,35.870138 90.466772,32.678763 81.642856,32.127975 70.446792,29.435839 59.063663,28.614362 46.869048,35.907739 38.381916,36.623944 31.300239,40.502424 26.836309,50.270833 Z"
       id="path15"
       sodipodi:nodetypes="ccccccc" />
    <path
       style="fill:#000000;stroke:#000000;stroke-width:1;stroke-linejoin:round"
       id="path25"
       d="m 40.594459,48.040316 c 2.907946,-2.234729 6.589192,-3.305008 10.066245,-4.28248 4.334047,-1.218393 5.561711,-1.370168 10.073346,-2.273347 4.795325,-0.825003 9.679623,-1.463413 14.55964,-1.207982 0.208725,0.01093 0.365527,0.218541 0.570222,0.260789 8.15504,1.683248 -1.747179,-0.671041 4.709134,0.903841 1.403069,0.363722 2.716201,0.968925 4.01878,1.588783 0,0 3.615406,-0.413576 3.615406,-0.413576 v 0 C 86.808499,41.991536 85.410317,41.352065 83.91296,40.991906 83.201758,40.826401 82.49758,40.627133 81.779358,40.495391 78.29061,39.85546 76.408303,39.895888 72.371476,39.815492 c -4.815414,-0.0959 -9.609842,0.397253 -14.338951,1.29523 -4.824365,0.949987 -5.631355,1.01464 -10.256927,2.277309 -3.759116,1.026147 -7.610777,2.149644 -10.901217,4.306332 0,0 3.720078,0.345953 3.720078,0.345953 z" />
    <path
       style="fill:#000000;stroke:#000000;stroke-width:1;stroke-linejoin:round"
       id="path29"
       d="m 43.574737,57.327027 c 1.132816,-1.173205 2.689992,-1.970958 4.120467,-2.707442 2.054503,-1.057762 3.206575,-1.540224 5.462807,-2.253654 1.069414,-0.338157 2.162114,-0.5977 3.24317,-0.896549 4.265125,-1.023316 8.653748,-1.509191 13.038756,-1.532326 0.06413,-2.65e-4 0.10124,0.09145 0.164915,0.09907 0.99844,0.119507 2.002441,0.186796 3.003661,0.280194 3.515664,0.404628 7.004942,1.057701 10.443628,1.89166 1.417474,0.357412 2.757943,0.942845 4.142094,1.39967 0,0 3.649644,-0.466474 3.649644,-0.466474 v 0 c -1.432708,-0.412882 -2.798982,-1.026689 -4.241845,-1.411584 -3.574097,-0.817618 -7.192383,-1.464807 -10.835475,-1.88292 -1.017286,-0.09785 -2.030752,-0.251291 -3.051861,-0.293558 -6.515327,-0.26969 -13.06092,-0.08939 -19.413931,1.511014 -2.571155,0.718251 -3.896754,1.007205 -6.359562,2.011325 -0.862386,0.351608 -1.694445,0.774375 -2.527178,1.191377 -1.574557,0.788479 -3.300706,1.598181 -4.562727,2.858783 0,0 3.723437,0.201417 3.723437,0.201417 z" />
    <path
       style="fill:#000000;stroke:#000000;stroke-width:1;stroke-linejoin:round"
       id="path33"
       d="m 48.233057,65.704166 c 0.295156,-0.187764 0.578485,-0.39556 0.885468,-0.563292 1.512265,-0.826284 3.100541,-1.516989 4.688334,-2.17959 3.076099,-1.283687 6.19873,-2.41068 9.356601,-3.472294 2.689526,-0.804622 5.42558,-1.480098 8.208621,-1.870845 1.464238,-0.344268 2.975687,-0.182986 4.452734,-0.375243 0.484354,-0.06305 -0.976466,0.02859 -1.464699,0.04288 2.65897,0.136551 5.180954,0.997654 7.7056,1.762641 1.008113,0.315828 2.014199,0.630412 2.943728,1.138489 0.323416,0.219969 0.644141,0.44184 0.972505,0.654714 0,0 3.7093,-0.354251 3.7093,-0.354251 v 0 C 89.369605,60.2385 88.992968,60.078467 88.697521,59.790391 87.728445,59.261822 86.713308,58.879092 85.64609,58.58518 c -2.606771,-0.733695 -5.189482,-1.637546 -7.912476,-1.827906 -1.749221,-0.0069 -3.498699,-0.05134 -5.247664,-0.02064 -4.244274,0.07451 -8.415768,1.173348 -12.458128,2.3607 -3.157032,1.088859 -6.276491,2.24867 -9.376069,3.493138 -1.570093,0.630385 -3.524295,1.411279 -5.077089,2.185585 -0.358402,0.178718 -0.692656,0.402241 -1.038982,0.603361 0,0 3.697375,0.324745 3.697375,0.324745 z" />
    <path
       style="fill:#000000;stroke:#000000;stroke-width:1;stroke-linejoin:round"
       id="path71"
       d="m 10.983125,45.205229 c 0.157833,1.15226 0.447946,2.280785 0.796719,3.388442 0.449802,1.359318 1.099448,2.633731 1.812493,3.870055 0,0 3.586325,-0.193837 3.586325,-0.193837 v 0 c -0.740021,-1.188309 -1.395873,-2.42798 -1.785725,-3.781128 -0.303166,-1.074571 -0.567704,-2.169851 -0.673681,-3.283532 0,0 -3.736131,0 -3.736131,0 z" />
    <path
       style="fill:#000000;stroke:#000000;stroke-width:1;stroke-linejoin:round"
       id="path73"
       d="m 10.812634,58.686834 c -0.775367,1.173668 -1.2137278,2.471883 -1.3854342,3.859337 0.018431,1.495745 0.8954652,2.732717 2.0725652,3.58009 0.170243,0.08688 0.340486,0.173752 0.510729,0.260628 0,0 3.647324,-0.418867 3.647324,-0.418867 v 0 c -0.170713,-0.06842 -0.341426,-0.136829 -0.512139,-0.205245 -1.159384,-0.675011 -2.037532,-1.785771 -2.082635,-3.170426 0.175494,-1.330626 0.607075,-2.599758 1.465003,-3.654443 0,0 -3.715413,-0.251074 -3.715413,-0.251074 z" />
    <path
       style="fill:#000000;stroke:#000000;stroke-width:1;stroke-linejoin:round"
       id="path75"
       d="m 12.828589,72.004673 c -0.02281,0.783103 -0.394621,1.680038 -0.100901,2.447213 0.08726,0.227905 0.239361,0.425347 0.359041,0.638022 0.401689,0.594712 0.948665,1.023813 1.518375,1.44168 0,0 3.638893,-0.353774 3.638893,-0.353774 v 0 c -0.56495,-0.361646 -1.10706,-0.733854 -1.512049,-1.283454 -0.10839,-0.171337 -0.24373,-0.328343 -0.32517,-0.514009 -0.307688,-0.701466 0.08104,-1.588659 0.15635,-2.301949 0,0 -3.734539,-0.07373 -3.734539,-0.07373 z" />
    <path
       style="fill:#000000;stroke:#000000;stroke-width:1;stroke-linejoin:round"
       id="path77"
       d="m 15.518839,82.246895 c -0.01827,0.872604 0.03019,1.704485 0.29629,2.538336 0.345908,0.886155 1.253858,1.194728 2.097679,1.439447 0.145737,0.03098 0.291474,0.06196 0.437211,0.09294 0,0 3.658479,-0.511564 3.658479,-0.511564 v 0 c -0.145387,-0.02244 -0.290775,-0.0449 -0.436162,-0.06735 -0.7431,-0.164724 -1.661112,-0.357389 -2.056076,-1.072872 -0.278162,-0.794414 -0.34584,-1.577462 -0.26129,-2.41894 0,0 -3.736131,0 -3.736131,0 z" />
    <path
       style="fill:#000000;stroke:#000000;stroke-width:1;stroke-linejoin:round"
       id="path79"
       d="m 20.856514,94.756972 c 0.394207,1.207754 1.348009,1.96882 2.391152,2.606092 0.822973,0.400095 1.69223,0.686851 2.533802,1.043657 0,0 3.667876,-0.433223 3.667876,-0.433223 v 0 c -0.848259,-0.348033 -1.703959,-0.667158 -2.561463,-0.992987 -0.977184,-0.531762 -1.963531,-1.170524 -2.296828,-2.297266 0,0 -3.734539,0.07373 -3.734539,0.07373 z" />
    <path
       style="fill:#000000;stroke:#000000;stroke-width:1;stroke-linejoin:round"
       id="path81"
       d="m 28.183263,105.42898 c 1.201232,1.31475 2.889432,1.99484 4.529079,2.58594 0.285803,0.0853 0.571606,0.17052 0.857411,0.25578 0,0 3.576016,-0.46589 3.576016,-0.46589 v 0 c -0.291007,-0.0777 -0.582017,-0.15532 -0.873027,-0.23298 -1.577856,-0.52165 -3.235931,-1.12394 -4.374068,-2.39393 0,0 -3.715411,0.25108 -3.715411,0.25108 z" />
    <path
       style="fill:#000000;stroke:#000000;stroke-width:1;stroke-linejoin:round"
       id="path85"
       d="m 112.07031,110.12228 c 1.32028,-0.76019 2.32514,-1.8951 3.393,-2.95249 0.13029,-0.14327 0.26059,-0.28655 0.39088,-0.42983 0,0 -3.65993,-0.26934 -3.65993,-0.26934 v 0 c -0.12423,0.13852 -0.24844,0.27703 -0.37267,0.41555 -1.03052,1.07542 -2.05002,2.20683 -3.45764,2.79285 0,0 3.70636,0.44326 3.70636,0.44326 z" />
    <path
       style="fill:#000000;stroke:#000000;stroke-width:1;stroke-linejoin:round"
       id="path87"
       d="m 117.66195,99.7969 c 0.6299,-0.707443 1.15065,-1.509278 1.71507,-2.269876 0,0 -3.58243,-0.232719 -3.58243,-0.232719 v 0 c -0.58853,0.76014 -1.14504,1.563372 -1.86384,2.208945 0,0 3.7312,0.29365 3.7312,0.29365 z" />
    <path
       style="fill:#000000;stroke:#000000;stroke-width:1;stroke-linejoin:round"
       id="path89"
       d="m 120.30778,89.969521 c 0.47852,-0.655529 0.95698,-1.309581 1.50264,-1.911011 0.55867,-0.429757 1.14022,-0.838904 1.72855,-1.228971 0.0736,-0.06932 0.14726,-0.138631 0.2209,-0.207947 0,0 -3.71054,-0.318674 -3.71054,-0.318674 v 0 c -0.0714,0.0564 -0.14285,0.112792 -0.21428,0.169188 -0.58083,0.42477 -1.20868,0.797784 -1.71082,1.318453 -0.5334,0.614603 -0.99046,1.290881 -1.54765,1.885309 0,0 3.7312,0.293653 3.7312,0.293653 z" />
    <path
       style="fill:#000000;stroke:#000000;stroke-width:1;stroke-linejoin:round"
       id="path91"
       d="m 122.94974,78.871669 c 0.48523,-1.254183 1.05537,-2.47596 1.54294,-3.730445 0.2886,-0.572196 0.53921,-1.157015 0.7313,-1.767959 0,0 -3.70017,-0.112776 -3.70017,-0.112776 v 0 c -0.18811,0.598077 -0.43271,1.172252 -0.68239,1.747165 -0.46967,1.245944 -0.99486,2.486867 -1.61512,3.662598 0,0 3.72344,0.201417 3.72344,0.201417 z" />
    <path
       style="fill:#000000;stroke:#000000;stroke-width:1;stroke-linejoin:round"
       id="path93"
       d="m 122.61417,65.884086 c 0.0809,-0.06532 0.17544,-0.116639 0.24266,-0.195951 0.0478,-0.05645 0.48601,-0.764693 0.51285,-0.807045 0.3095,-0.488254 0.60627,-0.974297 0.88355,-1.481865 0.40266,-0.744615 0.61323,-1.55361 0.74223,-2.383433 0,0 -3.69679,-0.05641 -3.69679,-0.05641 v 0 c -0.11955,0.786421 -0.3186,1.55197 -0.70655,2.254287 -0.44772,0.794788 -0.90928,1.760173 -1.69579,2.257113 0,0 3.71784,0.413309 3.71784,0.413309 z" />
    <path
       style="fill:#000000;stroke:#000000;stroke-width:1;stroke-linejoin:round"
       id="path97"
       d="m 122.99268,54.394062 c 0.6262,-0.767709 0.9311,-1.723411 1.14546,-2.675268 0.26,-0.706083 0.42014,-1.432443 0.50124,-2.178703 0,0 -3.71116,-0.04127 -3.71116,-0.04127 v 0 c -0.0838,0.730361 -0.25926,1.436306 -0.47799,2.13796 -0.2043,0.900081 -0.49545,1.805292 -1.17645,2.464596 0,0 3.7189,0.292682 3.7189,0.292682 z" />
    <path
       style="fill:#000000;stroke:#000000;stroke-width:1;stroke-linejoin:round"
       id="path99"
       d="m 122.86068,40.580926 c 0.18032,-1.126977 0.48472,-2.229453 0.64273,-3.35934 0.0512,-0.498446 -0.0611,-0.944245 -0.24967,-1.397622 0,0 -3.72084,0.154987 -3.72084,0.154987 v 0 c 0.18348,0.389126 0.32048,0.751092 0.28539,1.195245 -0.13385,1.131062 -0.40411,2.24241 -0.68379,3.345185 0,0 3.72618,0.06154 3.72618,0.06154 z" />
    <path
       style="fill:#000000;stroke:#000000;stroke-width:1;stroke-linejoin:round"
       id="path101"
       d="m 114.31609,30.685433 c -0.60674,-0.490093 -1.15663,-1.041805 -1.77555,-1.517156 -0.50115,-0.381039 -0.95781,-0.829659 -1.22639,-1.403897 -0.20153,-0.554146 -0.69107,-0.87707 -1.08451,-1.284468 0,0 -3.71658,0.295648 -3.71658,0.295648 v 0 c 0.70723,0.658244 -0.36353,-0.354554 0.37103,0.399439 0.24934,0.25594 0.60428,0.355796 0.71279,0.738944 0.25569,0.654831 0.71215,1.164374 1.25695,1.603614 0.63864,0.433284 1.1943,0.974717 1.74218,1.513829 0,0 3.72008,-0.345953 3.72008,-0.345953 z" />
    <path
       style="fill:#000000;stroke:#000000;stroke-width:1;stroke-linejoin:round"
       id="path103"
       d="m 102.35954,25.400334 c -0.18637,-0.961183 -0.74139,-1.690046 -1.39905,-2.37853 -0.34464,-0.382385 -0.77149,-0.615699 -1.243123,-0.79915 0,0 -3.683172,0.467201 -3.683172,0.467201 v 0 c 0.463608,0.115196 0.890037,0.270249 1.238038,0.615975 0.616291,0.629769 1.24133,1.230389 1.361133,2.156047 0,0 3.726174,-0.06154 3.726174,-0.06154 z" />
    <path
       style="fill:#000000;stroke:#000000;stroke-width:1;stroke-linejoin:round"
       id="path105"
       d="m 91.688297,22.396108 c -0.596781,-0.521648 -1.342046,-0.829828 -2.03464,-1.203004 -0.582602,-0.374692 -1.200875,-0.689328 -1.777088,-1.073885 -0.24802,-0.2316 -0.138594,-0.104018 -0.328848,-0.382257 0,0 -3.719374,0.197306 -3.719374,0.197306 v 0 c 0.194593,0.378207 0.08027,0.201449 0.341852,0.531001 0.554979,0.454264 1.232402,0.70419 1.809969,1.12848 0.668891,0.343617 1.354355,0.67887 1.976925,1.096011 0,0 3.731204,-0.293652 3.731204,-0.293652 z" />
    <path
       style="fill:#000000;stroke:#000000;stroke-width:1;stroke-linejoin:round"
       id="path107"
       d="m 78.786333,19.346148 c -0.707745,-0.458374 -1.476595,-0.809703 -2.207773,-1.228819 -0.551125,-0.301576 -0.895358,-0.838775 -1.349365,-1.252903 0,0 -3.710527,0.335671 -3.710527,0.335671 v 0 c 0.534681,0.356022 0.825884,0.96728 1.378561,1.308789 0.722471,0.396418 1.450097,0.781074 2.169023,1.183215 0,0 3.720081,-0.345953 3.720081,-0.345953 z" />
    <path
       style="fill:#000000;stroke:#000000;stroke-width:1;stroke-linejoin:round"
       id="path109"
       d="m 65.88307,18.964731 c -0.951223,-0.286571 -1.682838,-0.945529 -2.465436,-1.518736 -0.119472,-0.07299 -0.238947,-0.145984 -0.35842,-0.218976 0,0 -3.67942,0.392399 -3.67942,0.392399 v 0 c 0.120346,0.06063 0.240689,0.121262 0.361034,0.181892 0.81357,0.535541 1.505823,1.258241 2.435881,1.60668 0,0 3.706361,-0.443259 3.706361,-0.443259 z" />
    <path
       style="fill:#000000;stroke:#000000;stroke-width:1;stroke-linejoin:round"
       id="path125"
       d="m 20.739847,38.890164 c 0.761871,-0.870444 1.756885,-1.48228 2.716235,-2.109552 0.51869,-0.33588 1.001556,-0.728707 1.459531,-1.142851 0,0 -2.58706,-0.217853 -2.58706,-0.217853 v 0 c -0.451052,0.400397 -0.920725,0.782566 -1.429698,1.107927 -0.975124,0.655656 -1.955049,1.320027 -2.76825,2.177121 0,0 2.609242,0.185208 2.609242,0.185208 z" />
    <path
       style="fill:#000000;stroke:#000000;stroke-width:1;stroke-linejoin:round"
       id="path129"
       d="m 32.769574,30.423688 c 0.808733,-0.638659 1.67,-1.21802 2.582278,-1.698024 0.469159,-0.276659 0.240956,-0.148267 0.68345,-0.387226 0,0 -2.588855,-0.275412 -2.588855,-0.275412 v 0 c -0.425315,0.247483 -0.205703,0.118398 -0.658588,0.38768 -0.913219,0.523709 -1.78594,1.11854 -2.632723,1.743356 0,0 2.614438,0.229626 2.614438,0.229626 z" />
    <path
       style="fill:#000000;stroke:#000000;stroke-width:1;stroke-linejoin:round"
       id="path131"
       d="m 43.432531,24.361217 c 0.568015,-0.376702 1.156227,-0.723537 1.740659,-1.074444 0.315413,-0.287603 0.670206,-0.46205 1.080985,-0.559019 0,0 -2.60617,-0.334976 -2.60617,-0.334976 v 0 c -0.397695,0.145197 -0.740828,0.367188 -1.073542,0.628453 -0.581241,0.367941 -1.176236,0.71244 -1.764665,1.068785 0,0 2.622733,0.271201 2.622733,0.271201 z" />
    <path
       style="fill:#000000;stroke:#000000;stroke-width:1;stroke-linejoin:round"
       id="path133"
       d="m 52.251456,20.672529 c 0.786508,-0.346842 1.596763,-0.620431 2.43545,-0.807017 0.434406,-0.09108 0.876723,-0.123085 1.31886,-0.145568 0,0 -2.585505,-0.391875 -2.585505,-0.391875 v 0 c -0.438677,0.03624 -0.876676,0.08504 -1.304825,0.192093 -0.848815,0.219228 -1.666176,0.527332 -2.484771,0.838935 0,0 2.620791,0.313432 2.620791,0.313432 z" />
    <path
       style="fill:#000000;stroke:#000000;stroke-width:1;stroke-linejoin:round"
       id="path135"
       d="m 65.399483,112.78346 c 1.761762,1.23739 3.611591,2.33263 5.23222,3.76617 0.547497,0.48429 1.053824,1.01322 1.580734,1.51983 1.202764,1.20554 2.253081,2.54531 3.30975,3.87627 0,0 2.397463,-0.16553 2.397463,-0.16553 v 0 c -1.12809,-1.32004 -2.241682,-2.65475 -3.464403,-3.89003 -0.518213,-0.51311 -1.020268,-1.04308 -1.554639,-1.53934 -1.515893,-1.40779 -3.22203,-2.54965 -4.880166,-3.77365 0,0 -2.620959,0.20628 -2.620959,0.20628 z" />
    <path
       style="fill:#000000;stroke:#000000;stroke-width:1;stroke-linejoin:round"
       id="path137"
       d="m 73.91537,109.79873 c 1.476922,0.6733 2.36733,1.64689 3.361883,2.9 1.42598,1.96096 2.375532,4.20759 3.806116,6.16419 0.51926,0.63071 1.10917,1.18717 1.51552,1.9012 0,0 2.599298,-0.1334 2.599298,-0.1334 v 0 c -0.415544,-0.74558 -1.015746,-1.32071 -1.602661,-1.93296 -1.536752,-1.89454 -2.554914,-4.11532 -3.871176,-6.15797 -0.866069,-1.19716 -1.799051,-2.35798 -3.178488,-2.98569 0,0 -2.630492,0.24463 -2.630492,0.24463 z" />
    <path
       style="fill:#000000;stroke:#000000;stroke-width:1;stroke-linejoin:round"
       id="path139"
       d="m 83.76844,107.90935 c 0.970536,1.05549 1.37233,2.54509 1.759045,3.89375 0.425667,1.42099 0.686742,2.88047 1.013417,4.32431 0.248685,0.84716 0.247555,1.73526 0.448255,2.59058 0.12202,0.41611 0.233058,0.83422 0.319471,1.25911 0,0 2.615404,-0.0531 2.615404,-0.0531 v 0 c -0.08942,-0.4297 -0.203391,-0.85237 -0.339847,-1.26975 -0.228169,-0.85243 -0.1997,-1.74502 -0.463981,-2.59098 -0.404053,-1.43213 -0.678027,-2.90164 -1.106874,-4.32831 -0.380587,-1.38142 -0.787334,-2.84186 -1.606532,-4.03326 0,0 -2.638358,0.20764 -2.638358,0.20764 z" />
  </g>
  <g
     inkscape:groupmode="layer"
     id="layer5"
     inkscape:label="Layer 5">
    <path
       style="fill:#000000;stroke:#000000;stroke-width:0.264583px;stroke-linecap:butt;stroke-linejoin:miter;stroke-opacity:1"
       d="m 97.954281,56.661139 5.746299,8.68626 L 93.677969,107.57598 44.634012,95.548856 55.057521,48.643053 Z"
       id="path158" />
  </g>
  <g
     inkscape:groupmode="layer"
     id="layer4"
     inkscape:label="Layer 4">
    <path
       style="fill:#ffffff;stroke:#000000;stroke-width:0.264583px;stroke-linecap:butt;stroke-linejoin:miter;stroke-opacity:1"
       d="M 57.730217,69.222807 93.811602,76.973622 87.397134,105.83873 51.583018,97.820645 Z"
       id="path151" />
    <path
       style="fill:none;stroke:#000000;stroke-width:0.264583px;stroke-linecap:butt;stroke-linejoin:miter;stroke-opacity:1"
       d="m 65.748304,65.213764 25.925142,6.147199"
       id="path153" />
    <path
       style="fill:#d3d7cf;stroke:#000000;stroke-width:0.264583px;stroke-linecap:butt;stroke-linejoin:miter;stroke-opacity:1"
       d="m 69.089171,50.914844 26.058781,5.612659 -3.474506,14.83346 -25.925142,-6.147199 z"
       id="path155" />
  </g>
  <g
     inkscape:groupmode="layer"
     id="layer3"
     inkscape:label="Layer 3">
    <text
       xml:space="preserve"
       style="font-size:10.5833px;line-height:1.25;font-family:serif;-inkscape-font-specification:serif;display:inline;stroke-width:0.264583"
       x="56.391392"
       y="77.290092"
       id="text143"
       transform="rotate(12.389236)"><tspan
         sodipodi:role="line"
         id="tspan141"
         x="56.391392"
         y="77.290092"
         style="font-size:50.8px;stroke-width:0.264583">💾</tspan></text>
  </g>
</svg>
