<?xml version="1.0" encoding="UTF-8" standalone="no"?>
<svg
   xmlns:dc="http://purl.org/dc/elements/1.1/"
   xmlns:cc="http://creativecommons.org/ns#"
   xmlns:rdf="http://www.w3.org/1999/02/22-rdf-syntax-ns#"
   xmlns:svg="http://www.w3.org/2000/svg"
   xmlns="http://www.w3.org/2000/svg"
   xmlns:sodipodi="http://sodipodi.sourceforge.net/DTD/sodipodi-0.dtd"
   xmlns:inkscape="http://www.inkscape.org/namespaces/inkscape"
   width="195.93163mm"
   height="181.51584mm"
   viewBox="0 0 195.93163 181.51584"
   version="1.1"
   id="svg8"
   inkscape:version="1.0.1 (3bc2e813f5, 2020-09-07)"
   sodipodi:docname="Catchers Mitt Logo.svg">
  <defs
     id="defs2" />
  <sodipodi:namedview
     id="base"
     pagecolor="#ffffff"
     bordercolor="#666666"
     borderopacity="1.0"
     inkscape:pageopacity="0.0"
     inkscape:pageshadow="2"
     inkscape:zoom="0.35355339"
     inkscape:cx="359.27592"
     inkscape:cy="315.31882"
     inkscape:document-units="mm"
     inkscape:current-layer="layer1"
     inkscape:document-rotation="0"
     showgrid="false"
     inkscape:window-width="1366"
     inkscape:window-height="705"
     inkscape:window-x="-8"
     inkscape:window-y="-8"
     inkscape:window-maximized="1" />
  <metadata
     id="metadata5">
    <rdf:RDF>
      <cc:Work
         rdf:about="">
        <dc:format>image/svg+xml</dc:format>
        <dc:type
           rdf:resource="http://purl.org/dc/dcmitype/StillImage" />
        <dc:title />
      </cc:Work>
    </rdf:RDF>
  </metadata>
  <g
     inkscape:groupmode="layer"
     id="layer2"
     inkscape:label="Mitt color"
     style="display:inline"
     transform="translate(-10.774912,-76.87291)">
    <rect
       style="fill:#c4a000;stroke:#000000;stroke-width:1;stroke-linejoin:round"
       id="rect29"
       width="70.819939"
       height="27.608057"
       x="69.031242"
       y="225.63599"
       ry="6.614583" />
    <rect
       style="display:none;fill:#c4a000;stroke:#000000;stroke-width:1.08732;stroke-linejoin:round"
       id="rect31"
       width="127.12795"
       height="133.42311"
       x="28.999575"
       y="90.884224"
       ry="7.1381726" />
    <path
       id="rect39"
       style="fill:#c4a000;stroke:#000000;stroke-width:1;stroke-linejoin:round"
       d="M 58.104466,87.129861 125.3227,82.319009 c 19.11107,-1.367791 64.08135,7.948454 53.29362,44.206451 l -18.17433,61.08464 c -5.46389,18.36436 -15.4248,34.58475 -34.58475,34.58475 H 60.777161 c -19.15995,0 -34.584748,-15.4248 -34.584748,-34.58475 v -61.08464 c 0,-19.15995 12.800987,-38.027808 31.912053,-39.395599 z"
       sodipodi:nodetypes="sssssssss" />
  </g>
  <g
     inkscape:label="Mitt outline"
     inkscape:groupmode="layer"
     id="layer1"
     style="display:inline"
     transform="translate(-10.774912,-76.87291)">
    <path
       style="fill:#000000;stroke:#000000;stroke-width:1;stroke-linejoin:round;stroke-opacity:1"
       id="path841"
       d="m 96.758629,254.65329 c 0.278191,-0.0955 0.545177,-0.23392 0.834567,-0.28646 0.737481,-0.13389 3.433574,-0.27592 3.946794,-0.30477 3.64931,-0.20512 7.3016,-0.27969 10.95486,-0.38591 17.41077,-0.13454 -14.66745,-0.10104 -21.999818,0.0142 -1.779538,0.028 3.555751,0.16588 5.332293,0.27282 4.325285,0.26036 8.625705,0.64392 12.929145,1.13922 14.72306,2.09074 4.6783,0.79046 39.74232,0.53847 1.31158,-0.009 3.02211,-0.52299 3.64922,-1.86891 0.77757,-1.66886 0.78492,-5.67263 0.86719,-7.31837 0.11748,-1.4611 0.20578,-2.92485 0.35244,-4.38331 0.36442,-3.62401 0.60222,-5.18326 1.29491,-8.71736 0.42895,-2.18848 1.11277,-4.33143 1.39148,-6.54408 0.10425,-0.82765 0.049,-1.66766 0.0735,-2.5015 -0.28957,-1.67867 -0.19067,-2.85198 -1.85022,-4.00358 -3.05513,-2.12001 -10.49781,-2.0486 -13.9919,-2.02889 -12.69645,0.0716 -25.39176,0.28054 -38.08764,0.4208 -12.37457,1.44483 -24.723004,3.13642 -37.059747,4.87947 -3.273129,0.66101 -6.640677,0.68348 -9.935721,1.13818 -0.797631,0.11008 -1.574284,0.33914 -2.362591,0.50316 -0.885743,0.76249 -2.421353,0.46358 -3.186383,1.37162 -0.559318,0.66388 -0.707194,1.49408 -0.944316,2.29319 -0.422328,2.59896 0.203552,5.1146 0.740217,7.63755 0.08954,0.42093 0.898072,4.47003 0.992907,4.9442 0.704763,3.11905 1.362482,6.23895 2.52072,9.22491 1.131252,1.92668 1.452565,4.16044 2.179063,6.24494 0.128302,0.31863 0.256606,0.63725 0.384911,0.95587 0,0 36.932676,-2.0001 36.932676,-2.0001 v 0 c -0.150783,-0.14588 -0.301567,-0.29177 -0.452347,-0.43765 -1.062009,-2.02061 -1.732397,-4.17902 -2.374829,-6.36485 -1.484191,-2.70414 -2.836103,-5.46175 -3.77499,-8.41629 -0.590635,-2.28972 -0.951111,-4.35682 -0.899285,-6.7306 0.02381,-1.09073 -0.02577,-2.27099 0.74085,-3.13118 1.089932,-0.1564 -0.405673,0.002 0.815456,0.0849 0.965221,0.0659 1.804561,-0.79606 2.796069,-0.64949 3.11853,-0.61929 6.256414,-1.15734 9.343414,-1.94309 11.361026,-2.39162 22.862766,-4.28675 34.474536,-4.84688 -8.35387,-0.0532 -16.70762,-0.13104 -25.06161,-0.1595 -1.57126,-0.005 3.14308,0.0237 4.71294,0.0902 1.1611,0.0491 2.31629,0.19832 3.47697,0.25654 0.7027,0.0352 1.40708,0.0151 2.11061,0.0237 0.4251,0.005 0.89853,-0.17916 1.27529,0.0178 0.40452,0.21148 0.55663,0.7236 0.83494,1.08541 0.20905,0.58757 0.52099,1.14816 0.62715,1.76271 0.26521,1.53539 0.13443,4.95161 0.0223,6.32767 -0.35307,4.33418 -1.10766,8.65302 -2.25071,12.84679 -0.82288,1.88262 -0.88036,3.37713 -2.7449,4.25815 -0.3599,0.17006 -0.79023,0.0984 -1.18693,0.13119 -0.49277,0.0407 -1.97509,0.0836 -1.48067,0.0894 34.82365,0.40841 42.92236,1.2785 28.86695,-0.0571 -4.8175,-0.42029 -9.64075,-0.71884 -14.46556,-1.04554 -1.81843,-0.12314 -3.63353,-0.33482 -5.45596,-0.35947 -27.362682,-0.37019 -26.719361,-0.34978 -42.596334,-0.17128 -4.386607,0.0149 -8.774123,0.0481 -13.159489,0.16732 -0.74364,0.0202 -4.489418,0.20266 -5.282834,0.19905 -0.500814,-0.002 -0.999162,-0.0704 -1.498743,-0.10561 0,0 36.886821,5.8423 36.886821,5.8423 z" />
    <path
       style="fill:#000000;stroke:#000000;stroke-width:1;stroke-linejoin:round;stroke-opacity:1"
       id="path843"
       d="m 69.031246,225.63599 c -0.326808,-0.62179 -1.70279,-3.23683 -1.773708,-3.39138 -0.81112,-1.76762 -2.579757,-6.32192 -3.226525,-7.90631 -3.462666,-8.48245 -1.016657,-2.10203 -4.289827,-10.94157 -2.085761,-5.92199 -4.146143,-11.8499 -6.127189,-17.80768 -0.68833,-2.07009 -1.439429,-4.1204 -2.063584,-6.21073 -0.967234,-3.23933 -1.903743,-7.45548 -2.680459,-10.78223 -0.783804,-3.47125 -1.283504,-6.99309 -1.622552,-10.53219 -0.07028,-0.73358 -0.08416,-1.47316 -0.186859,-2.2029 -0.84658,-6.01521 -0.186452,1.14126 -0.677791,-5.0878 -0.88817,-4.22108 -0.902531,-8.5225 -0.873956,-12.81188 0.03461,-5.19572 0.280397,-10.32085 0.732716,-15.49531 0.819867,-5.89064 1.60824,-11.77211 2.209834,-17.68898 0.149543,-1.84606 0.376431,-3.68425 0.581639,-5.524528 0.06206,-0.556498 0.09288,-1.693847 0.431683,-2.259108 0.137047,-0.228648 0.388369,-0.365263 0.582552,-0.547894 3.770249,-3.205453 8.551354,-5.120119 13.198414,-6.654922 7.03576,-2.323729 9.100135,-2.546966 16.576558,-4.161914 8.953643,-1.693751 18.024893,-2.719792 27.128298,-3.102708 2.64531,-0.11127 10.58932,-0.14597 7.94167,-0.143182 -30.788612,0.03243 -29.956829,-0.02019 -16.982289,0.342731 9.578149,0.393009 19.145169,1.050692 28.726089,1.370994 4.80611,0.08994 9.64528,0.163912 14.38958,1.029425 2.47041,0.450683 3.31995,0.758526 5.67105,1.441019 3.54747,0.971079 6.71679,2.855775 10.06395,4.311999 2.56653,0.988298 5.34781,0.967965 8.01634,1.505799 0.85658,0.167423 1.6698,0.505106 2.55108,0.526476 0.39227,0.0095 0.74425,-0.111614 1.13226,-0.101052 0.4919,0.39792 0.41205,1.104037 0.49295,1.670754 0.087,0.609465 0.24332,1.3184 0.36767,1.920237 0.50138,2.585852 1.03302,5.282504 0.6486,7.925364 -0.10086,0.69342 -0.31566,1.36542 -0.47349,2.04814 -0.6651,2.98114 -3.01461,5.27748 -3.91,8.15104 -0.23965,0.76911 -0.34453,1.57389 -0.5168,2.36083 -0.62586,3.87706 -1.06883,7.11837 -2.16694,11.01932 -0.74573,2.64917 -1.80061,5.20214 -2.62833,7.82685 -1.00597,3.1899 -1.76992,6.45651 -2.87196,9.61451 -1.26146,3.61484 -5.93253,14.57051 -7.48817,18.26783 -3.71813,9.2766 -9.55947,17.50783 -12.9562,26.91112 -0.24335,1.00933 -0.47999,2.02029 -0.73004,3.02797 -0.83674,3.37201 -1.01928,4.35142 -2.31191,7.68448 -1.38897,3.58144 -3.19671,6.88533 -5.13745,10.18568 -1.34698,2.43896 -3.16999,4.67574 -4.19042,7.29344 -0.37091,0.95151 -0.46473,1.64035 -0.66273,2.63093 -0.50246,2.26497 -0.70721,4.6385 -1.76086,6.73251 0,0 36.68893,1.28398 36.68893,1.28398 v 0 c 0.62555,-2.37216 1.25178,-4.73694 1.58891,-7.17031 0.85648,-3.10327 1.57123,-6.24827 2.85385,-9.22032 1.3296,-3.50198 2.59863,-7.03173 4.04547,-10.48787 5.56523,-13.29397 -1.75519,4.51978 3.47799,-7.86853 0.42745,-1.01188 0.80365,-2.04465 1.20548,-3.06698 2.13988,-8.96607 3.54635,-18.10887 6.33428,-26.91966 2.24902,-6.90941 3.56056,-11.50795 6.55257,-18.24196 1.43868,-3.23798 3.17614,-6.33485 4.73969,-9.51442 1.26727,-2.57706 2.37045,-5.23788 3.75264,-7.75518 1.84546,-3.36104 4.7912,-7.58836 7.03673,-10.89786 2.05124,-3.44988 3.58823,-7.11759 4.54177,-11.03109 0.88048,-3.72113 1.40534,-7.447867 1.16632,-11.282968 -0.10779,-1.730828 -0.099,-3.487852 -0.53887,-5.176211 -0.97252,-2.719334 -1.83608,-2.903699 -4.55704,-3.298883 -2.67191,-0.618088 -5.34535,-1.142368 -8.10165,-1.186135 -4.09133,-0.776959 -7.75786,-2.817916 -11.6671,-4.174397 -0.3007,-0.08484 -6.08775,-1.719249 -6.22377,-1.751211 -4.88275,-1.147297 -9.94266,-1.425927 -14.94026,-1.441823 -10.46627,-0.180502 -20.92841,-0.456645 -31.38579,-0.93622 -25.74461,-0.904309 -51.614213,-1.392336 -76.940997,3.836577 -7.335173,1.487019 -11.81876,2.286958 -19.031095,4.173736 -5.49147,1.436592 -12.138728,3.125136 -16.88479,6.500929 -0.811157,0.576963 -1.451752,1.362302 -2.177628,2.043453 -0.282459,0.620999 -0.654701,1.208554 -0.847378,1.862998 -0.229153,0.778343 -0.0875,1.976411 -0.04633,2.76852 0.09411,1.810835 0.162899,3.624225 0.11399,5.437895 -0.03949,2.4489 -0.18881,4.90332 -0.179598,7.35215 0.0127,3.3765 0.125131,2.70459 0.349029,6.27781 0.0863,1.37737 0.136028,2.75678 0.204042,4.13516 0.03099,4.89173 0.113728,5.13252 -0.202365,10.16018 -0.313495,4.98633 -0.931351,9.92177 -1.484819,14.88199 -0.135118,1.21094 -0.220959,2.42687 -0.331439,3.6403 0.05497,0.92296 0.115664,1.84559 0.164902,2.76887 0.04965,0.93098 -0.02468,1.87472 0.131758,2.7938 0.136058,0.79934 0.469858,1.55264 0.7383,2.31775 1.258083,3.58576 2.801453,7.06819 4.054897,10.65589 1.138482,3.06445 2.911134,7.76051 3.916889,10.79785 2.645174,7.98834 4.892921,16.1103 7.60751,24.07743 1.492985,4.98704 2.972535,9.99652 3.702729,15.16849 0.481071,3.40742 0.218771,2.94221 0.240546,5.94115 0.0028,0.37857 0.04815,0.75562 0.07223,1.13344 0,0 37.126574,-1.0335 37.126574,-1.0335 z" />
    <path
       style="fill:#000000;stroke:#000000;stroke-width:1;stroke-linejoin:round;stroke-opacity:1"
       id="path845"
       d="m 83.260119,191.37927 c 0.344731,-5.1383 0.09051,-10.3456 -0.804769,-15.4219 -0.817886,-4.63749 -1.843691,-7.86852 -3.112995,-12.41244 -2.592547,-7.92202 -5.009163,-16.09419 -9.286904,-23.31992 -0.549503,-0.92819 -1.185667,-1.80226 -1.7785,-2.70338 -1.978594,-2.76963 -0.999212,-1.4872 -2.91406,-3.86557 0,0 -7.108735,0.50111 -7.108735,0.50111 v 0 c 2.05995,2.30482 1.0101,1.05339 3.120739,3.77827 0.622255,0.8794 1.285727,1.73104 1.866762,2.6382 4.542319,7.09185 7.252396,15.19092 9.842326,23.13955 0.566473,2.0859 1.206706,4.15315 1.699418,6.25769 1.617057,6.907 2.476212,14.20983 1.068179,21.22686 0,0 7.408539,0.18153 7.408539,0.18153 z" />
    <path
       style="fill:#000000;stroke:#000000;stroke-width:1;stroke-linejoin:round;stroke-opacity:1"
       id="path849"
       d="m 114.94847,188.60967 c 0.90137,-5.33771 1.37414,-10.74633 2.00159,-16.12313 0.80674,-4.99582 1.10206,-10.11335 2.57624,-14.98076 0.59048,-1.94962 1.09594,-2.96105 1.89674,-4.77822 2.35662,-4.40626 5.58945,-8.24744 9.0691,-11.80038 1.94201,-1.89247 4.18541,-3.41718 6.23464,-5.18375 0,0 -7.23945,-0.61684 -7.23945,-0.61684 v 0 c -1.97804,1.77234 -4.11296,3.3635 -5.97969,5.26012 -3.52039,3.6333 -6.87749,7.50851 -9.16282,12.06057 -0.81504,2.06085 -1.11972,2.6691 -1.71138,4.89462 -1.3106,4.92978 -1.56333,10.05073 -2.46953,15.05642 -0.77612,5.36216 -1.16195,10.84853 -2.68153,16.06395 0,0 7.46609,0.1474 7.46609,0.1474 z" />
  </g>
  <g
     inkscape:groupmode="layer"
     id="layer3"
     inkscape:label="floppy disk"
     transform="translate(-10.774912,-76.87291)">
    <text
       xml:space="preserve"
       style="font-size:10.5833px;line-height:1.25;font-family:serif;-inkscape-font-specification:serif;stroke-width:0.264583"
       x="34.431911"
       y="164.17754"
       id="text45"><tspan
         sodipodi:role="line"
         id="tspan43"
         x="34.431911"
         y="164.17754"
         style="font-size:101.6px;stroke-width:0.264583">💾</tspan></text>
  </g>
</svg>
